<svg width="673" height="400" viewBox="0 0 673 400" fill="none" xmlns="http://www.w3.org/2000/svg">
<path d="M672.424 397.944H395.722C392.681 333.577 384.525 298.552 384.525 298.552C382.813 295.799 380.73 288.303 380.73 288.303L382.06 297.799C335.735 323.812 253.149 303.872 253.149 303.872L255.046 286.025C343.138 306.718 380.916 285.262 380.916 285.262C378.684 276.827 378.637 273.395 381.651 265.211L386.422 252.228C390.598 242.546 403.32 194.51 403.32 194.51C406.12 213.845 391.918 249.289 391.918 249.289C394.383 258.022 403.125 266.838 403.125 266.838L404.455 271.014L408.25 273.674C407.868 279.561 412.993 284.872 412.993 284.872L416.406 287.15C420.396 293.79 437.099 293.986 437.099 293.986C454.649 293.986 484.009 281.933 495.216 277.031C498.118 275.767 500.434 273.451 501.717 270.558L503.633 266.243C504.889 263.406 505.056 260.207 504.117 257.25C501.931 250.405 498.806 239.505 498.806 239.505L501.317 252.674C502.154 257.064 501.513 261.602 499.494 265.592L496.639 271.237C495.123 274.232 491.031 274.725 488.874 272.167C464.674 243.411 475.649 229.079 475.649 229.079C470.078 239.44 481.917 255.659 481.917 255.659C484.196 248.061 499.169 235.729 499.169 235.729C501.503 234.855 506.795 230.902 511.892 228.791C520.913 225.052 530.511 222.774 530.511 222.774L535.942 222.076C548.674 219.946 556.561 217.631 553.641 214.906C501.94 220.923 489.273 212.729 489.273 212.729C519.983 218.263 565.378 211.288 572.185 209.66C578.212 208.219 585.01 206.117 590.665 203.587C593.678 202.239 599.398 198.695 598.198 194.789C596.98 190.809 590.86 190.92 587.54 190.743C584.964 190.604 584.406 190.855 583.708 188.39C582.955 185.731 581.913 183.173 581.076 180.532C578.249 171.604 573.776 162.75 567.033 156.119C563.62 152.77 559.63 149.999 555.287 148.009C550.804 145.953 545.67 144.4 540.75 143.926C539.616 143.814 538.472 143.777 537.328 143.842C537.254 141.703 537.43 138.857 534.417 139.155C531.301 139.462 532.083 141.666 531.804 143.842C531.804 143.842 488.92 142.466 483.312 185.489C482.931 188.446 482.335 191.646 482.931 194.612C498.164 200.909 524.029 201.541 535.598 201.82C562.188 202.471 572.734 194.64 572.734 194.64C571.851 200.816 561.769 202.629 557.007 203.689C550.097 205.233 542.88 204.945 535.821 204.945C522.364 204.945 509.213 203.113 495.998 201.076C492.315 200.509 488.427 199.997 484.93 198.639C483.535 198.1 482.215 197.607 481.126 196.575C479.927 195.44 480.02 194.836 479.583 193.338C477.146 194.389 474.746 195.561 472.375 196.724C470.031 197.877 466.246 199.123 464.972 201.643C461.94 207.651 484.828 212.636 487.209 212.357C484.4 215.696 479.006 219.9 477.62 224.782C476.346 224.048 473.798 225.21 472.542 225.815C469.948 227.052 454.258 236.845 451.933 237.487C449.05 238.277 446.241 237.952 443.674 239.663C441.935 240.825 428.812 244.48 414.75 262.514C416.052 258.031 419.661 253.362 423.083 250.256C427.985 245.81 434.895 240.844 442.977 238.342C441.824 234.938 439.219 233.367 438.475 229.702C437.397 224.373 434.895 220.839 432.179 216.245C429.901 212.376 428.431 208.181 426.283 204.229C424.134 200.267 422.181 196.212 420.582 191.999C418.201 185.712 415.643 179.462 413.104 173.24C411.784 170.004 409.756 167.084 408.538 163.847C407.84 161.996 407.589 160.666 406.157 159.243C402.753 155.867 397.889 153.682 393.834 151.106C386.44 146.418 350.783 126.906 350.783 126.906C350.709 125.883 350.969 125.093 351.285 124.144C352.029 121.921 352.978 119.792 353.61 117.513C354.113 115.709 353.778 114.016 354.048 112.221C354.215 111.096 354.764 110.296 355.405 109.338C356.549 107.655 357.433 105.906 357.823 103.888C358.307 101.359 358.084 98.6615 358.075 96.0946C358.075 93.4719 358.391 90.8679 358.874 88.2917C359.609 84.4042 360.251 79.6796 364.278 77.9219C368.389 76.1269 370.769 88.7288 363.459 94.9693C362.613 95.6947 361.125 96.7642 359.981 95.89C359.06 95.1925 359.33 93.4812 359.33 92.4675C359.33 89.5193 359.786 87.0176 360.679 84.2368C362.855 77.4755 365.254 76.6571 366.24 69.6167C366.817 65.5153 366.24 51.5463 366.24 51.5463C366.287 50.7279 366.147 46.9706 366.677 46.487C367.021 46.1708 368.063 46.3661 368.547 46.208C369.347 45.9383 370.156 45.2872 370.797 44.7571C372.164 43.6411 373.281 42.2274 374.052 40.6464C375.578 37.5122 375.661 33.7735 374.015 30.6579C373.401 29.4954 372.23 27.8957 370.9 27.5888C370.211 27.4307 368.389 27.5609 367.886 28.1561C366.054 30.3045 370.481 30.0162 371.337 29.7837C374.88 28.8165 378.089 26.3798 378.414 22.5202C379.512 9.44399 359.935 -3.04627 348.709 4.06843C347.147 5.06356 345.798 6.60741 345.119 8.34656C344.329 10.374 345.538 11.3133 346.384 12.913C346.793 12.7828 347.416 12.913 347.798 12.7084C350.69 11.0622 344.691 5.40767 343.241 4.61715C337.419 1.43646 330.406 1.36206 324.454 4.25444C321.859 5.51928 318.855 6.92362 317.618 9.7137C316.744 11.704 316.893 14.4103 319.646 14.3638C321.199 14.3359 322.306 12.7828 322.138 11.4249C321.924 9.6486 320.278 8.38376 318.716 7.70484C309.667 3.79873 292.005 5.42627 290.48 17.7863C290.192 20.1114 289.671 23.3944 291.894 25.0312C292.759 25.6637 296.321 26.4635 296.916 24.8731C297.409 23.5525 294.805 21.6552 293.726 21.4227C291.066 20.8368 287.207 21.5808 284.854 22.9852C282.435 24.4267 280.352 28.184 279.245 30.6951C277.925 33.6712 277.432 37.103 278.418 40.2C279.59 43.8643 282.51 45.7615 286.053 46.7102C288.406 47.3333 291.103 47.5007 293.038 49.0817C294.675 50.421 294.963 51.8067 295.391 53.8063C295.735 55.4152 296.228 57.0614 296.377 58.6889C296.507 60.1398 296.786 63.5902 295.614 64.7155C294.535 64.0459 294.414 61.1349 294.228 59.9445C293.828 57.3869 293.856 54.8758 293.856 52.281C293.856 49.9932 293.428 46.9148 295.465 45.7708C330.053 26.3891 353.992 34.2385 360.902 36.5915C363.125 37.3541 363.394 38.4422 363.766 40.6557C364.064 42.4507 364.036 44.3014 364.231 46.115C364.603 49.6119 364.613 53.0809 364.613 56.6057C364.613 60.1305 363.99 73.3741 363.357 74.2669L362.976 74.3971C361.218 72.0069 358.865 71.0025 357.916 70.584C351.443 67.7195 343.845 66.8546 336.935 65.6269C326.054 63.6925 314.754 62.995 303.807 64.948C302.347 65.2084 300.915 65.6176 299.529 66.1198C298.469 66.5012 296.888 67.0499 296.367 67.952C295.995 68.603 296.2 69.7469 296.2 70.5003C296.2 72.4347 296.144 74.2762 295.846 76.192C295.53 78.266 295.419 80.3586 295.195 82.4418C295.037 83.8648 295.084 86.134 294.079 87.278C292.684 88.859 291.559 86.227 290.945 85.111C289.625 82.7115 288.741 79.7447 287.978 77.1128C287.169 74.3227 287.225 70.3701 288.527 67.7195C289.336 66.064 291.364 65.9896 292.647 67.3475C293.661 68.4263 293.959 70.305 294.535 71.6349C295.326 73.4857 295.177 75.8386 295.502 77.8289C296.125 81.6699 295.54 84.9994 294.991 88.7567C294.145 94.588 292.88 100.968 295.791 106.418C296.916 108.529 305.454 122.052 307.109 123.847C308.765 125.642 310.699 127.027 312.792 128.274C316.977 130.757 321.348 131.082 326.11 131.082C340.097 131.082 351.964 115.644 351.964 115.644L352.271 115.439L351.778 117.457C350.951 120.833 348.998 123.837 346.245 125.967C342.236 129.064 337.642 131.398 332.722 132.57C331.876 132.775 331.039 132.97 330.22 133.184C329.011 133.491 324.119 133.872 323.366 134.756C322.678 135.565 323.319 137.769 323.366 138.718C323.478 140.829 323.608 141.359 321.515 141.675C320.725 141.796 319.916 141.796 319.116 141.75C313.74 141.415 308.978 142.215 303.891 142.484C300.58 142.661 294.907 143.228 296.023 148.009C297.093 152.622 304.328 149.943 302.729 145.749C301.045 141.34 295.698 144.307 294.554 147.423C293.401 150.576 293.168 153.859 292.973 157.188C292.749 161.048 291.726 164.712 291.736 168.655C291.736 173.268 291.736 177.881 291.736 182.503C291.736 186 290.276 194.975 293.317 197.533C297.818 201.327 302.998 195.431 299.911 190.883C296.916 186.465 292.629 192.343 291.782 195.31C290.415 200.1 289.643 205.112 288.899 210.042C287.579 218.765 288.425 228.875 288.853 237.663C288.946 239.561 289.439 250.74 293.968 246.313C296.656 243.681 292.591 234.743 288.62 239.3C285.57 242.806 286.221 249.875 286.407 254.134C286.63 259.035 286.621 263.955 286.621 268.884H286.211C285.095 263.062 285.188 226.382 285.188 220.411C285.188 206.638 286.035 192.883 286.723 179.127C287.086 171.91 287.755 164.703 288.76 157.551C289.457 152.631 290.136 146.911 292.536 142.484C294.777 138.355 298.302 137.788 302.645 137.797C305.984 137.797 309.304 137.797 312.587 138.374C314.177 138.653 315.842 139.118 317.423 138.597C317.507 137.127 317.684 135.751 317.832 134.365C311.871 133.733 305.947 130.422 301.613 126.283C298.813 123.605 296.73 119.848 294.991 116.369C293.652 113.691 293.4 110.612 292.098 108.018C290.955 109.422 290.731 113.877 290.304 115.96L290.173 117.141C287.393 118.49 282.928 119.494 279.376 120.145C275.228 120.898 271.145 121.949 267.164 123.317L252.47 128.367C241.477 148.53 235.488 152.733 233.395 153.607C231.87 154.249 230.373 154.965 228.996 155.895C226.522 157.56 223.974 159.541 223.974 159.541C223.974 159.541 229.247 153.635 230.884 152.631C235.162 150.008 238.761 146.4 241.356 142.103C243.365 138.783 245.439 135.305 246.016 134.402C247.048 132.784 247.811 131.026 248.871 129.436C249.699 128.199 250.712 127.241 251.893 126.339C252.312 126.023 252.963 124.851 253.53 123.707C254.228 122.303 254.516 120.75 254.442 119.187C254.414 118.638 254.423 118.09 254.479 117.606C254.665 115.765 255.79 114.342 256.423 112.658C258.19 107.98 251.819 108.231 249.447 110.25C249.447 110.25 244.453 115.634 244.258 119.317C242.193 119.755 240.584 122.768 238.761 123.865C236.381 125.307 234.427 122.991 232.735 121.401C231.935 120.657 228.643 116.881 228.42 116.025C228.168 115.095 229.861 110.305 232.642 109.366C233.181 109.18 237.459 109.05 238.148 110.101C238.585 110.761 239.031 114.584 243.681 115.03C245.699 115.225 248.843 111.589 246.974 109.152C245.96 107.832 245.727 105.274 244.816 103.981L243.728 103.033C241.989 101.963 236.102 98.1314 231.163 97.8896C229.47 97.8059 228.01 99.3404 226.783 100.41C225.388 101.619 223.583 102.633 222.337 103.935C223.797 98.1407 225.676 92.4675 227.201 86.6455C227.843 84.1996 228.624 82.2837 230.01 80.1446C231.563 77.7359 233.581 75.0481 232.53 72.0348C229.861 64.3063 223.779 73.7554 222.067 76.7687C219.733 80.8608 218.496 85.4179 216.236 89.5286C214.99 91.7979 214.534 92.8302 214.757 95.3878C215.018 98.3546 215.846 102.475 215.018 105.339C214.534 101.842 213.362 98.7359 212.395 95.3785C211.66 92.8302 213.446 89.2589 213.902 86.6176C214.348 84.0136 217.482 72.5277 213.121 71.7558C210.609 71.3094 209.419 75.5131 208.647 77.1314C207.55 79.4285 205.913 81.2421 205.671 83.8369C205.243 88.4963 205.067 93.165 204.602 97.8524C204.099 102.912 205.559 106.595 207.754 111.077C205.764 109.078 203.969 106.613 202.63 104.111C201.56 102.112 201.728 99.452 202.09 97.1735C202.621 93.844 203.941 85.8178 199.235 85.1854L198.166 85.3621C194.687 87.0082 194.25 102.428 194.734 105.572C195.627 111.394 198.277 114.835 200.593 120.136C203.662 127.176 202.955 137.713 201.421 145.061C200.305 150.38 196.213 153.375 193.59 157.848C191.135 162.061 190.651 166.749 187.852 170.757C185.731 173.789 182.755 179.574 184.439 183.536C186.066 187.367 192.139 185.768 195.441 184.698C200.826 182.95 204.983 179.193 209.103 175.454C212.497 172.366 217.771 164.749 222.188 163.894C223.072 170.832 220.059 179.062 218.05 185.638C216.562 190.52 214.246 194.975 212.665 199.793C211.056 204.703 207.066 210.404 206.424 215.426C209.493 199.755 219.268 186.01 219.547 169.474C210.191 180.885 199.793 198.36 181.769 191.497C174.627 188.781 173.715 183.201 176.105 176.458C179.5 166.888 186.633 162.08 194.185 155.923C186.94 160.927 173.873 168.469 171.427 177.398C170.339 181.387 171.139 184.949 168.247 188.465C164.815 192.641 160.862 195.133 158.407 200.276C155.44 206.48 152.557 213.91 151.153 220.653C149.637 227.954 146.81 236.715 148.67 244.118C150.762 252.404 154.761 257.185 162.741 259.528C169.967 261.649 177.119 265.639 183.527 260.263C192.334 252.851 202.704 246.899 209.763 237.803C214.981 231.079 223.574 227.991 228.466 220.728C232.707 214.422 239.877 211.976 240.845 203.429C241.951 193.589 240.482 183.238 241.207 173.445C236.622 188.623 238.361 204.294 238.361 219.956V257.343C238.361 260.663 238.361 263.983 238.361 267.303C238.361 272.167 239.85 272.79 242.193 276.743C245.197 281.802 244.453 288.62 243.412 294.116C242.193 300.552 237.515 305.146 236.157 311.535C234.902 317.478 233.907 323.579 233.218 329.587C232.484 336.06 231.563 342.515 231.051 349.025C230.614 354.577 231.21 376.005 229.917 398H1" stroke="#483B34" stroke-linecap="round" stroke-linejoin="round"/>
<path d="M549.996 121.742C549.996 121.742 549.998 121.742 550 121.741L549.994 121.744C547.215 121.521 545.122 120.891 542.306 121.628C539.723 122.303 538.673 124.689 538.281 126.005C538.18 126.342 537.964 126.639 537.665 126.838C537.449 126.981 537.212 127.178 536.982 127.442C536.992 125.772 536.883 124.308 536.768 123.239C536.695 122.559 536.891 121.88 537.313 121.329C538.196 120.175 539.24 118.222 538.456 116.069C537.348 113.054 535.471 112.132 533.934 110.008V110C533.934 110 533.934 110.002 533.934 110.004C533.934 110.004 533.934 110.002 533.934 110V110.008C533.059 112.566 531.934 114.382 532.015 117.202C532.076 119.347 533.572 120.776 534.784 121.587C535.471 122.047 535.921 122.768 536.002 123.572C536.123 124.766 536.226 126.388 536.174 128.187C536.134 129.58 535.994 131.198 535.657 132.848C535.515 132.649 535.354 132.477 535.194 132.333C534.853 132.025 534.663 131.594 534.683 131.145C534.742 129.739 534.504 127.284 532.369 125.889C529.628 124.098 527.551 124.435 525.008 123.61L525.002 123.604C525.002 123.604 525.002 123.604 525.004 123.606C525.004 123.606 525.002 123.606 525 123.604L525.006 123.61C525.875 126.17 526.089 128.277 527.892 130.496C529.522 132.505 532.158 132.536 533.58 132.377C534.051 132.325 534.522 132.477 534.859 132.798C535.025 132.959 535.19 133.152 535.318 133.384C535.421 133.569 535.441 133.787 535.388 133.99C534.869 135.963 534.033 137.918 532.712 139.522L533.334 140C535.978 136.789 536.77 132.302 536.941 128.874C536.954 128.581 537.047 128.296 537.218 128.055C537.228 128.041 537.238 128.028 537.247 128.015C537.693 127.404 538.521 127.19 539.226 127.494C540.577 128.076 542.89 128.698 544.954 127.404C547.728 125.665 548.218 123.685 549.994 121.742L550 121.739C550 121.739 549.998 121.739 549.996 121.739V121.742Z" fill="#C1A55C"/>
</svg>
