<svg width="60" height="60" viewBox="0 0 60 60" fill="none" xmlns="http://www.w3.org/2000/svg">
    <path fill-rule="evenodd" clip-rule="evenodd"
          d="M24.8832 48.9267C26.2751 50.4004 27.7666 51.8852 29.3579 53.3811C29.7188 53.7203 30.2812 53.7203 30.6421 53.3811C32.2334 51.8852 33.7249 50.4004 35.1168 48.9267C42.9851 49.4834 48.75 51.2921 48.75 53.4375C48.75 56.0263 40.3553 58.125 30 58.125C19.6447 58.125 11.25 56.0263 11.25 53.4375C11.25 51.2921 17.0149 49.4834 24.8832 48.9267ZM30.6594 51.8526C30.2941 52.2141 29.7059 52.2141 29.3406 51.8526C17.9052 40.5367 12.1875 30.1275 12.1875 20.625C12.1875 10.7874 20.1624 2.8125 30 2.8125C39.8376 2.8125 47.8125 10.7874 47.8125 20.625C47.8125 30.1275 42.0948 40.5367 30.6594 51.8526ZM30 27.1875C34.1421 27.1875 37.5 23.8296 37.5 19.6875C37.5 15.5454 34.1421 12.1875 30 12.1875C25.8579 12.1875 22.5 15.5454 22.5 19.6875C22.5 23.8296 25.8579 27.1875 30 27.1875Z"
          fill="#465E35"/>
</svg>
