<svg width="200" height="46" viewBox="0 0 200 46" fill="none" xmlns="http://www.w3.org/2000/svg">
<path d="M59.0373 14.598C57.6922 13.8029 56.0264 13.4041 54.0424 13.4041C52.0585 13.4041 50.3926 13.8029 49.0476 14.598C47.7025 15.3957 46.7015 16.5187 46.0445 17.9724C45.3874 19.4261 45.0615 21.1396 45.0615 23.118C45.0615 24.9207 45.3926 26.545 46.0574 27.9882C46.7222 29.4313 47.731 30.5754 49.0864 31.4151C50.4418 32.2547 52.0921 32.6746 54.0424 32.6746C55.9928 32.6746 57.6431 32.2547 58.9985 31.4151C60.3539 30.5754 61.3627 29.434 62.0275 27.9882C62.6922 26.545 63.0233 24.9207 63.0233 23.118C63.0233 21.1396 62.6948 19.4261 62.0404 17.9724C61.3834 16.5187 60.3849 15.3957 59.0373 14.598ZM58.8692 27.7389C58.5148 29.1033 57.9457 30.1975 57.162 31.0215C56.3756 31.8454 55.3384 32.2547 54.0424 32.2547C52.7465 32.2547 51.7791 31.8402 50.9746 31.0084C50.1728 30.1766 49.5908 29.0797 49.2286 27.7126C48.8665 26.3482 48.6854 24.8158 48.6854 23.118C48.6854 21.4203 48.8484 19.8066 49.1769 18.4316C49.5054 17.0566 50.0641 15.9467 50.8582 15.0965C51.6524 14.249 52.7129 13.8239 54.0424 13.8239C55.372 13.8239 56.3549 14.2542 57.149 15.1096C57.9431 15.9677 58.5174 17.0907 58.8692 18.4841C59.2235 19.8748 59.3994 21.4203 59.3994 23.118C59.3994 24.8158 59.2235 26.3744 58.8692 27.7389Z" fill="#F9F1E2"/>
<path d="M78.1731 24.0102C77.9352 23.8397 77.6273 23.6953 77.2549 23.5694C78.124 23.4093 78.8793 23.0892 79.5208 22.6038C80.2269 22.0711 80.7598 21.4308 81.1116 20.6883C81.466 19.9457 81.6418 19.1873 81.6418 18.4185C81.6418 17.5972 81.4478 16.8336 81.0598 16.1356C80.6718 15.435 80.0769 14.8761 79.275 14.4563C78.4732 14.0365 77.4773 13.8265 76.2849 13.8265H67.8213V32.2574H71.4452V25.0388C71.8772 24.6898 72.3066 24.4091 72.7385 24.1991C73.1705 23.9892 73.5326 23.8843 73.8249 23.8843C74.3604 23.8843 74.7742 24.1729 75.0665 24.7502L78.8198 32.26H82.4437L78.8715 24.8814C78.6982 24.514 78.4654 24.2254 78.1731 24.0155V24.0102ZM75.2476 23.1443C74.5906 23.1259 73.9413 23.2545 73.2947 23.5248C72.648 23.7951 72.0298 24.1598 71.4452 24.6137V14.2438H74.1353C75.0148 14.2438 75.7649 14.4484 76.3883 14.8604C77.0091 15.2724 77.4799 15.8313 77.7981 16.5397C78.1162 17.2482 78.2766 18.0328 78.2766 18.8908C78.2766 19.678 78.1473 20.3996 77.8886 21.0556C77.6299 21.7116 77.2678 22.2285 76.8022 22.6038C76.3366 22.9816 75.8193 23.16 75.2502 23.1417L75.2476 23.1443Z" fill="#F9F1E2"/>
<path d="M114.697 13.824L107.452 32.2548H111.076L114.26 24.1677H121.974L122.517 25.5584C122.964 26.713 123.285 27.8413 123.474 28.946C123.663 30.0481 123.802 31.1501 123.888 32.2548H125.569L118.324 13.824H114.7H114.697ZM114.413 23.7479L118.114 14.375L121.816 23.7479H114.413Z" fill="#F9F1E2"/>
<path d="M144.322 16.608C144.434 17.6234 144.49 18.6284 144.49 19.6282V30.6804L132.845 13.8265H130.308V26.0858C130.308 27.3453 130.261 28.4447 130.166 29.3815C130.07 30.3183 129.886 31.276 129.609 32.2574H131.394C131.136 31.2944 130.957 30.3235 130.864 29.3421C130.768 28.3634 130.722 27.2771 130.722 26.0858L130.696 16.0569L141.875 32.2548H144.904V19.6255C144.904 18.6468 144.961 17.6444 145.072 16.6185C145.184 15.5951 145.352 14.6636 145.577 13.8213H143.792C144.033 14.661 144.211 15.5899 144.322 16.6053V16.608Z" fill="#F9F1E2"/>
<path d="M154.105 13.824H150.481V32.2548H154.105V13.824Z" fill="#F9F1E2"/>
<path d="M166.056 14.9391C167.204 14.2123 168.57 13.8502 170.158 13.8502C170.606 13.8502 171.056 13.9866 171.503 14.2569C171.951 14.5272 172.564 14.9785 173.34 15.6082C173.909 16.1173 174.418 16.5188 174.866 16.8153L175.073 14.3723C173.071 13.6717 171.105 13.3228 169.173 13.3228C167.24 13.3228 165.497 13.6901 163.945 14.4248C162.393 15.1595 161.162 16.2616 160.256 17.7337C159.351 19.2031 158.898 20.9795 158.898 23.063C158.898 25.1464 159.333 26.831 160.205 28.2742C161.076 29.7174 162.292 30.8116 163.854 31.5568C165.417 32.2994 167.215 32.672 169.25 32.672C171.061 32.672 173.004 32.365 175.073 31.7536L174.788 29.232C174.512 29.4078 174.09 29.7305 173.521 30.2028C172.76 30.851 172.15 31.3364 171.684 31.6591C171.219 31.9845 170.769 32.1446 170.339 32.1446C168.855 32.1446 167.522 31.7326 166.34 30.9113C165.158 30.09 164.227 28.9827 163.544 27.5893C162.861 26.1986 162.522 24.6872 162.522 23.0604C162.522 21.1186 162.825 19.4603 163.428 18.0853C164.03 16.7103 164.907 15.6607 166.056 14.9339V14.9391Z" fill="#F9F1E2"/>
<path d="M189.755 13.824H186.131L178.886 32.2548H182.51L185.694 24.1677H193.407L193.951 25.5584C194.398 26.713 194.719 27.8413 194.908 28.946C195.096 30.0481 195.236 31.1501 195.321 32.2548H197.003L189.758 13.824H189.755ZM185.846 23.7479L189.548 14.375L193.25 23.7479H185.846Z" fill="#F9F1E2"/>
<path d="M103.5 22.6169H96.2676V23.0289H99.8786V31.5962C98.9629 31.9819 98.0317 32.1735 97.0824 32.1735C95.6675 32.1735 94.3897 31.814 93.2516 31.0976C92.1134 30.3813 91.2107 29.3081 90.5459 27.8806C89.8811 26.4532 89.55 24.7345 89.55 22.7219C89.55 20.8851 89.8268 19.3002 90.3778 17.9699C90.9287 16.6395 91.6944 15.6345 92.667 14.9497C93.6421 14.2674 94.7673 13.9263 96.0452 13.9263C97.0798 13.9263 98.1921 14.1808 99.3845 14.6873C100.574 15.1963 101.79 15.9573 103.034 16.9701L103.164 14.6085C101.024 13.8397 98.8853 13.454 96.7462 13.454C94.607 13.454 92.8713 13.8187 91.234 14.5429C89.594 15.2698 88.3007 16.3325 87.3514 17.7337C86.4021 19.1349 85.9287 20.7959 85.9287 22.7219C85.9287 24.787 86.3891 26.5686 87.3126 28.0643C88.236 29.56 89.5035 30.6988 91.1176 31.4781C92.7316 32.2574 94.5475 32.6458 96.5651 32.6458C98.7922 32.6458 101.102 32.1551 103.5 31.1764V22.6169Z" fill="#F9F1E2"/>
<path d="M34.7355 18.6547C34.7355 18.6547 34.7381 18.6547 34.7406 18.6547H34.7329C31.2047 18.3582 28.5482 17.5185 24.9708 18.5025C21.6935 19.4025 20.3588 22.5828 19.8596 24.3382C19.7328 24.7869 19.4586 25.1832 19.0784 25.4482C18.8042 25.6397 18.5015 25.9021 18.2093 26.2537C18.2222 24.0286 18.0851 22.0764 17.9377 20.6489C17.8445 19.741 18.0954 18.8357 18.6283 18.1036C19.7483 16.5634 21.0753 13.9604 20.0794 11.0924C18.68 7.07242 16.2951 5.84177 14.3448 3.0105V3C14.3448 3 14.3448 3.00262 14.3448 3.00525C14.3448 3.00525 14.3448 3.00262 14.3448 3V3.0105C13.2325 6.41905 11.8047 8.84361 11.9081 12.6012C11.9857 15.4613 13.8843 17.3663 15.4234 18.4474C16.2951 19.0588 16.8668 20.0218 16.9677 21.0924C17.1203 22.6825 17.2522 24.8473 17.1875 27.2456C17.1358 29.1008 16.9599 31.2603 16.5305 33.4592C16.3494 33.1942 16.1451 32.9659 15.9433 32.7743C15.5114 32.365 15.2708 31.7903 15.2941 31.1921C15.3691 29.3186 15.0665 26.0438 12.3582 24.186C8.87398 21.7956 6.23558 22.2443 3.00742 21.1475L2.99966 21.1396C2.99966 21.1396 2.99966 21.1396 3.00224 21.1422C3.00224 21.1422 2.99966 21.1422 2.99707 21.1396L3.00483 21.1475C4.10934 24.5613 4.38094 27.3689 6.66755 30.3288C8.73688 33.0079 12.084 33.0472 13.8895 32.8373C14.487 32.7665 15.0871 32.9685 15.514 33.3988C15.7261 33.6114 15.933 33.8712 16.096 34.1808C16.2279 34.4274 16.2537 34.7187 16.1839 34.989C15.5243 37.6182 14.4638 40.2238 12.7876 42.3624L13.5765 43C16.934 38.7203 17.9377 32.7376 18.1549 28.1666C18.173 27.7756 18.292 27.3978 18.5067 27.075C18.5197 27.0567 18.5326 27.0383 18.5429 27.0199C19.1068 26.2065 20.1596 25.9205 21.0572 26.3246C22.7721 27.1013 25.708 27.9278 28.3283 26.2039C31.8513 23.8843 32.4721 21.2446 34.7277 18.6547H34.7355C34.7355 18.6547 34.7329 18.6521 34.7303 18.6547H34.7355Z" fill="#A78922"/>
</svg>
        