<svg width="200" height="46" viewBox="0 0 200 46" fill="none" xmlns="http://www.w3.org/2000/svg">
<path d="M55.4136 32.59C53.3575 32.59 51.6231 32.1767 50.2078 31.3502C48.7924 30.5238 47.7399 29.3912 47.0451 27.955C46.3503 26.5189 46.0029 24.894 46.0029 23.0829C46.0029 21.0626 46.3452 19.3332 47.0297 17.897C47.7142 16.4609 48.759 15.3538 50.1666 14.5784C51.5716 13.8029 53.3215 13.4152 55.411 13.4152C57.5006 13.4152 59.2505 13.8029 60.6555 14.5784C62.0605 15.3538 63.1053 16.4583 63.7924 17.897C64.4769 19.3332 64.8191 21.0626 64.8191 23.0829C64.8191 24.894 64.4717 26.5189 63.7769 27.955C63.0821 29.3912 62.0271 30.5238 60.6143 31.3502C59.199 32.1767 57.4646 32.59 55.4085 32.59H55.4136ZM55.4136 32.1461C56.6797 32.1461 57.6936 31.7456 58.4579 30.9447C59.2221 30.1437 59.7703 29.0723 60.1048 27.7306C60.4393 26.3888 60.6066 24.8405 60.6066 23.0804C60.6066 21.3203 60.4393 19.8051 60.1048 18.4301C59.7703 17.0552 59.217 15.9482 58.445 15.1115C57.6704 14.2748 56.6617 13.8565 55.4136 13.8565C54.0961 13.8565 53.0539 14.2748 52.2896 15.1115C51.5253 15.9482 50.99 17.0399 50.6812 18.3893C50.3724 19.7387 50.2206 21.3024 50.2206 23.0778C50.2206 24.8532 50.3956 26.3404 50.7482 27.6898C51.0981 29.0392 51.6617 30.1207 52.4337 30.9293C53.2057 31.7405 54.199 32.1436 55.411 32.1436L55.4136 32.1461Z" fill="#F9F1E2"/>
<path d="M69.6035 32.1717V13.8311H78.1418C79.5829 13.8311 80.7898 14.0785 81.7651 14.5759C82.7404 15.0733 83.4609 15.7212 83.9267 16.5222C84.3925 17.3232 84.6241 18.1854 84.6241 19.1088C84.6241 20.2924 84.2638 21.2694 83.5433 22.0346C82.8227 22.8024 81.9401 23.3636 80.8953 23.7207C79.8505 24.0779 78.8161 24.2641 77.7996 24.2819H73.8212V32.1717H69.6035ZM75.9828 23.8126C76.9658 23.8126 77.7919 23.583 78.4609 23.1213C79.1274 22.6596 79.6241 22.0678 79.9509 21.3459C80.2751 20.624 80.4373 19.8613 80.4373 19.0603C80.4373 18.2593 80.2803 17.5196 79.9638 16.7875C79.6472 16.0554 79.1609 15.4585 78.5021 14.9968C77.8433 14.5351 77.0224 14.3055 76.0368 14.3055H73.8238V23.8151H75.9854L75.9828 23.8126Z" fill="#F9F1E2"/>
<path d="M88.9414 13.8311V32.1717H93.1591V14.2749C95.1611 14.2749 96.8055 14.4305 98.087 14.7443C99.3686 15.058 100.722 15.6243 102.145 16.4431V13.8311H88.9414Z" fill="#F9F1E2"/>
<path d="M104.395 32.1716L111.775 13.8309H115.993L123.373 32.1716H121.528C121.476 31.1257 121.361 30.0416 121.186 28.9193C121.011 27.7969 120.684 26.6515 120.21 25.4833L119.708 24.1772H111.829L108.612 32.1716H104.395ZM112.012 23.7079H119.523L115.753 14.4074L112.012 23.7079Z" fill="#F9F1E2"/>
<path d="M138.421 13.8311V21.5627H130.725V13.8311H126.507V32.1717H130.725V22.0346H138.421V32.1717H142.636V13.8311H138.421Z" fill="#F9F1E2"/>
<path d="M148.066 32.1716V13.8309H152.284V32.1716H148.066Z" fill="#F9F1E2"/>
<path d="M157.714 32.1713V13.8307H161.932V22.3735L166.966 18.2462L167.177 18.0625C167.985 17.3662 168.638 16.7004 169.14 16.0627C169.642 15.4275 169.987 14.6827 170.182 13.8281H172.817L163.963 21.1695C165.491 20.3864 166.878 19.9859 168.126 19.968C169.374 19.9502 170.234 20.5165 170.71 21.6669L174.979 32.1688H170.761L166.623 22.2664C166.343 21.57 165.772 21.2919 164.91 21.4297C164.047 21.57 163.188 21.9603 162.326 22.6056L161.93 22.8939V32.1688H157.712L157.714 32.1713Z" fill="#F9F1E2"/>
<path d="M177.024 32.1716L184.405 13.8309H188.622L196.003 32.1716H194.158C194.106 31.1257 193.99 30.0416 193.815 28.9193C193.64 27.7969 193.314 26.6515 192.84 25.4833L192.338 24.1772H184.459L181.242 32.1716H177.024ZM184.641 23.7079H192.153L188.383 14.4074L184.641 23.7079Z" fill="#F9F1E2"/>
<path d="M35.481 18.6546C35.481 18.6546 35.4835 18.6546 35.4861 18.6521L35.4784 18.6572C31.868 18.3587 29.148 17.5195 25.4887 18.5016C22.1331 19.402 20.7692 22.5829 20.2597 24.3379C20.1285 24.7869 19.848 25.1823 19.4594 25.4475C19.1789 25.6389 18.8701 25.9016 18.5716 26.2536C18.5845 24.0267 18.4429 22.0753 18.2937 20.6494C18.1985 19.7438 18.4532 18.8383 19.0013 18.1036C20.149 16.5655 21.5052 13.961 20.4862 11.0913C19.0477 7.07117 16.6081 5.84166 14.6112 3.0102V3C14.6112 3 14.6112 3.00255 14.6112 3.0051C14.6112 3.0051 14.6112 3.00255 14.6112 3V3.0102C13.4738 6.4207 12.0122 8.84146 12.1177 12.6014C12.1975 15.4609 14.1403 17.3664 15.7152 18.448C16.6081 19.0602 17.1923 20.0219 17.2978 21.0932C17.4548 22.685 17.5886 24.8481 17.5217 27.2459C17.4702 29.1029 17.2875 31.261 16.85 33.4598C16.6648 33.1945 16.4563 32.9649 16.2479 32.7736C15.8053 32.3629 15.5582 31.789 15.584 31.1895C15.6612 29.3147 15.3524 26.0419 12.5783 24.1823C9.01681 21.7947 6.31738 22.2437 3.01322 21.1443L3.0055 21.1366C3.0055 21.1366 3.0055 21.1366 3.00808 21.1392C3.00808 21.1392 3.0055 21.1392 3.00293 21.1366L3.01065 21.1443C4.14034 24.5573 4.41826 27.3658 6.76 30.3248C8.87785 33.0032 12.303 33.044 14.1506 32.8323C14.7631 32.7634 15.3755 32.9649 15.813 33.3935C16.0291 33.6077 16.2427 33.8654 16.41 34.174C16.5438 34.4215 16.5695 34.7123 16.5001 34.9827C15.8259 37.6126 14.7399 40.2196 13.0235 42.3572L13.8315 42.9949C17.2669 38.7146 18.2963 32.7328 18.5176 28.1617C18.5356 27.7714 18.6565 27.3913 18.8778 27.0699C18.8907 27.052 18.9036 27.0342 18.9164 27.0163C19.4954 26.2026 20.5711 25.9169 21.4872 26.3225C23.2422 27.098 26.2479 27.927 28.9293 26.2026C32.5345 23.8839 33.1701 21.2437 35.4784 18.6546L35.4861 18.6495C35.4861 18.6495 35.4835 18.6495 35.481 18.6495V18.6546Z" fill="#A78922"/>
</svg>
